<mxfile host="app.diagrams.net" modified="2022-11-06T08:12:41.968Z" agent="5.0 (Windows NT 10.0; Win64; x64) AppleWebKit/537.36 (KHTML, like Gecko) Chrome/107.0.0.0 Safari/537.36" etag="MiIB2WT-mHPShJybN5gg" version="20.5.2" type="github">
  <diagram id="pDlg8nnz1eGq1mHnqkOY" name="Page-1">
    <mxGraphModel dx="1483" dy="1927" grid="1" gridSize="10" guides="1" tooltips="1" connect="1" arrows="1" fold="1" page="1" pageScale="1" pageWidth="850" pageHeight="1100" math="0" shadow="0">
      <root>
        <mxCell id="0" />
        <mxCell id="1" parent="0" />
        <mxCell id="V36dxih9QXwDXmbCaq2l-1" value="Activity Diagram for Vehicle to Vehicle Communication (V2V)" style="swimlane;childLayout=stackLayout;resizeParent=1;resizeParentMax=0;startSize=20;html=1;fontSize=18;" parent="1" vertex="1">
          <mxGeometry x="170" y="-170" width="900" height="650" as="geometry" />
        </mxCell>
        <mxCell id="V36dxih9QXwDXmbCaq2l-2" value="Other Vehicles" style="swimlane;startSize=20;html=1;fontSize=16;" parent="V36dxih9QXwDXmbCaq2l-1" vertex="1">
          <mxGeometry y="20" width="300" height="630" as="geometry" />
        </mxCell>
        <mxCell id="V36dxih9QXwDXmbCaq2l-5" value="" style="ellipse;html=1;shape=startState;fillColor=#000000;strokeColor=#ff0000;" parent="V36dxih9QXwDXmbCaq2l-2" vertex="1">
          <mxGeometry x="135" y="40" width="30" height="30" as="geometry" />
        </mxCell>
        <mxCell id="V36dxih9QXwDXmbCaq2l-6" value="" style="edgeStyle=orthogonalEdgeStyle;html=1;verticalAlign=bottom;endArrow=open;endSize=8;strokeColor=#ff0000;rounded=0;exitX=0.5;exitY=1;exitDx=0;exitDy=0;entryX=0.5;entryY=0;entryDx=0;entryDy=0;" parent="V36dxih9QXwDXmbCaq2l-2" source="V36dxih9QXwDXmbCaq2l-5" target="V36dxih9QXwDXmbCaq2l-7" edge="1">
          <mxGeometry relative="1" as="geometry">
            <mxPoint x="110" y="110" as="targetPoint" />
            <Array as="points">
              <mxPoint x="150" y="90" />
              <mxPoint x="150" y="90" />
            </Array>
          </mxGeometry>
        </mxCell>
        <mxCell id="V36dxih9QXwDXmbCaq2l-7" value="Share data" style="rounded=0;whiteSpace=wrap;html=1;fontSize=16;" parent="V36dxih9QXwDXmbCaq2l-2" vertex="1">
          <mxGeometry x="90" y="130" width="120" height="60" as="geometry" />
        </mxCell>
        <mxCell id="V36dxih9QXwDXmbCaq2l-3" value="V2V Communication System" style="swimlane;startSize=20;html=1;fontSize=16;" parent="V36dxih9QXwDXmbCaq2l-1" vertex="1">
          <mxGeometry x="300" y="20" width="280" height="630" as="geometry" />
        </mxCell>
        <mxCell id="V36dxih9QXwDXmbCaq2l-10" value="Share data" style="rounded=0;whiteSpace=wrap;html=1;fontSize=16;" parent="V36dxih9QXwDXmbCaq2l-3" vertex="1">
          <mxGeometry x="50" y="330" width="120" height="60" as="geometry" />
        </mxCell>
        <mxCell id="V36dxih9QXwDXmbCaq2l-8" value="Update DB" style="rounded=0;whiteSpace=wrap;html=1;fontSize=16;" parent="V36dxih9QXwDXmbCaq2l-3" vertex="1">
          <mxGeometry x="50" y="230" width="120" height="60" as="geometry" />
        </mxCell>
        <mxCell id="V36dxih9QXwDXmbCaq2l-9" value="Retrieve data" style="rounded=0;whiteSpace=wrap;html=1;fontSize=16;" parent="V36dxih9QXwDXmbCaq2l-3" vertex="1">
          <mxGeometry x="50" y="130" width="120" height="60" as="geometry" />
        </mxCell>
        <mxCell id="V36dxih9QXwDXmbCaq2l-11" value="" style="endArrow=open;endFill=1;endSize=12;html=1;rounded=0;strokeColor=#000000;exitX=1;exitY=0.5;exitDx=0;exitDy=0;fontColor=#000000;" parent="V36dxih9QXwDXmbCaq2l-3" source="V36dxih9QXwDXmbCaq2l-7" edge="1">
          <mxGeometry width="160" relative="1" as="geometry">
            <mxPoint x="-50" y="159.5" as="sourcePoint" />
            <mxPoint x="50" y="159.5" as="targetPoint" />
          </mxGeometry>
        </mxCell>
        <mxCell id="V36dxih9QXwDXmbCaq2l-12" value="" style="endArrow=open;endFill=1;endSize=12;html=1;rounded=0;strokeColor=#000000;entryX=0.5;entryY=0;entryDx=0;entryDy=0;exitX=0.5;exitY=1;exitDx=0;exitDy=0;fontColor=#000000;" parent="V36dxih9QXwDXmbCaq2l-3" source="V36dxih9QXwDXmbCaq2l-9" target="V36dxih9QXwDXmbCaq2l-8" edge="1">
          <mxGeometry width="160" relative="1" as="geometry">
            <mxPoint x="150" y="200" as="sourcePoint" />
            <mxPoint x="210" y="200" as="targetPoint" />
          </mxGeometry>
        </mxCell>
        <mxCell id="V36dxih9QXwDXmbCaq2l-13" value="" style="endArrow=open;endFill=1;endSize=12;html=1;rounded=0;strokeColor=#000000;entryX=0.5;entryY=0;entryDx=0;entryDy=0;exitX=0.5;exitY=1;exitDx=0;exitDy=0;fontColor=#000000;" parent="V36dxih9QXwDXmbCaq2l-3" source="V36dxih9QXwDXmbCaq2l-8" target="V36dxih9QXwDXmbCaq2l-10" edge="1">
          <mxGeometry width="160" relative="1" as="geometry">
            <mxPoint x="150" y="310" as="sourcePoint" />
            <mxPoint x="210" y="310" as="targetPoint" />
          </mxGeometry>
        </mxCell>
        <mxCell id="V36dxih9QXwDXmbCaq2l-32" value="" style="edgeStyle=segmentEdgeStyle;endArrow=classic;html=1;rounded=0;strokeColor=#000000;entryX=0;entryY=0.5;entryDx=0;entryDy=0;fontColor=#000000;" parent="V36dxih9QXwDXmbCaq2l-3" target="V36dxih9QXwDXmbCaq2l-14" edge="1">
          <mxGeometry width="50" height="50" relative="1" as="geometry">
            <mxPoint x="170" y="360" as="sourcePoint" />
            <mxPoint x="230" y="170" as="targetPoint" />
            <Array as="points">
              <mxPoint x="220" y="360" />
              <mxPoint x="220" y="160" />
            </Array>
          </mxGeometry>
        </mxCell>
        <mxCell id="V36dxih9QXwDXmbCaq2l-4" value="Control Unit" style="swimlane;startSize=20;html=1;fontSize=16;" parent="V36dxih9QXwDXmbCaq2l-1" vertex="1">
          <mxGeometry x="580" y="20" width="320" height="630" as="geometry" />
        </mxCell>
        <mxCell id="V36dxih9QXwDXmbCaq2l-14" value="Access situation" style="rounded=0;whiteSpace=wrap;html=1;fontSize=16;" parent="V36dxih9QXwDXmbCaq2l-4" vertex="1">
          <mxGeometry x="50" y="130" width="120" height="60" as="geometry" />
        </mxCell>
        <mxCell id="V36dxih9QXwDXmbCaq2l-21" value="Need to stop" style="rhombus;whiteSpace=wrap;html=1;fillColor=#ffffc0;strokeColor=#ff0000;fontSize=16;" parent="V36dxih9QXwDXmbCaq2l-4" vertex="1">
          <mxGeometry x="70" y="230" width="80" height="70" as="geometry" />
        </mxCell>
        <mxCell id="V36dxih9QXwDXmbCaq2l-22" value="yes" style="edgeStyle=orthogonalEdgeStyle;html=1;align=left;verticalAlign=bottom;endArrow=open;endSize=8;strokeColor=#ff0000;rounded=0;exitX=1;exitY=0.5;exitDx=0;exitDy=0;entryX=0.367;entryY=-0.015;entryDx=0;entryDy=0;entryPerimeter=0;" parent="V36dxih9QXwDXmbCaq2l-4" source="V36dxih9QXwDXmbCaq2l-21" target="V36dxih9QXwDXmbCaq2l-25" edge="1">
          <mxGeometry x="-0.8519" y="-15" relative="1" as="geometry">
            <mxPoint x="210" y="330" as="targetPoint" />
            <Array as="points">
              <mxPoint x="194" y="265" />
              <mxPoint x="194" y="330" />
            </Array>
            <mxPoint as="offset" />
          </mxGeometry>
        </mxCell>
        <mxCell id="V36dxih9QXwDXmbCaq2l-23" value="no" style="edgeStyle=orthogonalEdgeStyle;html=1;align=left;verticalAlign=top;endArrow=open;endSize=8;strokeColor=#ff0000;rounded=0;exitX=0;exitY=0.5;exitDx=0;exitDy=0;entryX=0.423;entryY=0.009;entryDx=0;entryDy=0;entryPerimeter=0;" parent="V36dxih9QXwDXmbCaq2l-4" source="V36dxih9QXwDXmbCaq2l-21" target="V36dxih9QXwDXmbCaq2l-24" edge="1">
          <mxGeometry x="-0.4215" y="-10" relative="1" as="geometry">
            <mxPoint x="60" y="330" as="targetPoint" />
            <Array as="points">
              <mxPoint x="60" y="265" />
              <mxPoint x="60" y="330" />
              <mxPoint x="61" y="330" />
            </Array>
            <mxPoint as="offset" />
          </mxGeometry>
        </mxCell>
        <mxCell id="V36dxih9QXwDXmbCaq2l-24" value="Adjust speed and direction" style="rounded=0;whiteSpace=wrap;html=1;fontSize=16;" parent="V36dxih9QXwDXmbCaq2l-4" vertex="1">
          <mxGeometry x="10" y="340" width="120" height="60" as="geometry" />
        </mxCell>
        <mxCell id="V36dxih9QXwDXmbCaq2l-25" value="stop the car" style="rounded=0;whiteSpace=wrap;html=1;fontSize=16;" parent="V36dxih9QXwDXmbCaq2l-4" vertex="1">
          <mxGeometry x="150" y="340" width="120" height="60" as="geometry" />
        </mxCell>
        <mxCell id="V36dxih9QXwDXmbCaq2l-26" value="Continue&amp;nbsp; journey" style="rounded=0;whiteSpace=wrap;html=1;fontSize=16;" parent="V36dxih9QXwDXmbCaq2l-4" vertex="1">
          <mxGeometry x="80" y="440" width="120" height="60" as="geometry" />
        </mxCell>
        <mxCell id="V36dxih9QXwDXmbCaq2l-27" value="" style="ellipse;html=1;shape=endState;fillColor=#000000;strokeColor=#ff0000;" parent="V36dxih9QXwDXmbCaq2l-4" vertex="1">
          <mxGeometry x="125" y="570" width="30" height="30" as="geometry" />
        </mxCell>
        <mxCell id="V36dxih9QXwDXmbCaq2l-28" value="" style="endArrow=open;endFill=1;endSize=12;html=1;rounded=0;strokeColor=#FF0000;exitX=0.5;exitY=1;exitDx=0;exitDy=0;entryX=0.5;entryY=0;entryDx=0;entryDy=0;" parent="V36dxih9QXwDXmbCaq2l-4" source="V36dxih9QXwDXmbCaq2l-14" target="V36dxih9QXwDXmbCaq2l-21" edge="1">
          <mxGeometry width="160" relative="1" as="geometry">
            <mxPoint x="160" y="210" as="sourcePoint" />
            <mxPoint x="320" y="210" as="targetPoint" />
          </mxGeometry>
        </mxCell>
        <mxCell id="V36dxih9QXwDXmbCaq2l-29" value="" style="edgeStyle=segmentEdgeStyle;endArrow=classic;html=1;rounded=0;strokeColor=#000000;exitX=1;exitY=0.5;exitDx=0;exitDy=0;entryX=1;entryY=0.5;entryDx=0;entryDy=0;fontColor=#000000;" parent="V36dxih9QXwDXmbCaq2l-4" source="V36dxih9QXwDXmbCaq2l-25" target="V36dxih9QXwDXmbCaq2l-27" edge="1">
          <mxGeometry width="50" height="50" relative="1" as="geometry">
            <mxPoint x="290" y="370" as="sourcePoint" />
            <mxPoint x="270" y="590" as="targetPoint" />
            <Array as="points">
              <mxPoint x="310" y="370" />
              <mxPoint x="310" y="585" />
            </Array>
          </mxGeometry>
        </mxCell>
        <mxCell id="V36dxih9QXwDXmbCaq2l-31" value="" style="endArrow=open;endFill=1;endSize=12;html=1;rounded=0;strokeColor=#000000;exitX=0.5;exitY=1;exitDx=0;exitDy=0;entryX=0.5;entryY=0;entryDx=0;entryDy=0;" parent="V36dxih9QXwDXmbCaq2l-4" source="V36dxih9QXwDXmbCaq2l-26" target="V36dxih9QXwDXmbCaq2l-27" edge="1">
          <mxGeometry width="160" relative="1" as="geometry">
            <mxPoint x="140" y="530" as="sourcePoint" />
            <mxPoint x="250" y="530" as="targetPoint" />
          </mxGeometry>
        </mxCell>
        <mxCell id="V36dxih9QXwDXmbCaq2l-30" value="" style="edgeStyle=segmentEdgeStyle;endArrow=classic;html=1;rounded=0;strokeColor=#000000;" parent="V36dxih9QXwDXmbCaq2l-4" edge="1">
          <mxGeometry width="50" height="50" relative="1" as="geometry">
            <mxPoint x="50" y="400" as="sourcePoint" />
            <mxPoint x="80" y="470" as="targetPoint" />
            <Array as="points">
              <mxPoint x="50" y="402" />
              <mxPoint x="50" y="470" />
            </Array>
          </mxGeometry>
        </mxCell>
      </root>
    </mxGraphModel>
  </diagram>
</mxfile>
